<?xml version="1.0" standalone="no"?>
<!DOCTYPE svg PUBLIC "-//W3C//DTD SVG 1.1//EN" "http://www.w3.org/Graphics/SVG/1.1/DTD/svg11.dtd" >
<svg xmlns="http://www.w3.org/2000/svg" xmlns:xlink="http://www.w3.org/1999/xlink" version="1.1">
<metadata>
Created by FontForge 20160407 at Tue Aug 23 22:40:41 2016
 By Jimmy Warting
Industri is a trademark of Hanken Design Co. and designed by Alfredo Marco Pradil (ammpradil@gmail.com)
</metadata>
<defs>
<font id="Industri-Bold" horiz-adv-x="559" >
  <font-face 
    font-family="Industri"
    font-weight="700"
    font-stretch="normal"
    units-per-em="1000"
    panose-1="0 0 8 0 0 0 0 0 0 0"
    ascent="800"
    descent="-200"
    x-height="440"
    cap-height="680"
    bbox="-84 -270.033 908 959"
    underline-thickness="39"
    underline-position="-135"
    stemh="120"
    stemv="150"
    unicode-range="U+0020-FB02"
  />
<missing-glyph horiz-adv-x="498" 
d="M124 688v-625h252v625h-252zM438 0h-375v750h375v-750z" />
    <glyph glyph-name=".notdef" horiz-adv-x="498" 
d="M124 688v-625h252v625h-252zM438 0h-375v750h375v-750z" />
    <glyph glyph-name="space" unicode=" " horiz-adv-x="248" 
 />
    <glyph glyph-name="exclam" unicode="!" horiz-adv-x="278" 
d="M52 78c0 48 39 87 88 87c48 0 88 -39 88 -87c0 -49 -40 -88 -88 -88c-49 0 -88 39 -88 88zM85 229l-21 451h151l-19 -451h-111z" />
    <glyph glyph-name="quotedbl" unicode="&#x22;" horiz-adv-x="344" 
d="M20 680h114l-21 -237h-73zM214 680h113l-20 -237h-72z" />
    <glyph glyph-name="numbersign" unicode="#" horiz-adv-x="546" 
d="M336 404h-107l-14 -104h109zM539 404h-105l-14 -104h94v-96h-106l-24 -208l-96 12l24 196h-108l-26 -208l-95 12l24 197h-97v95h110l14 104h-98v96h109l23 196l95 -12l-23 -184h108l24 196l93 -12l-20 -184h94v-96z" />
    <glyph glyph-name="dollar" unicode="$" horiz-adv-x="628" 
d="M17 154l133 66c28 -62 74 -96 128 -107v171c-107 27 -226 63 -226 201c0 130 111 195 226 204v61h100v-65c87 -15 160 -63 196 -140l-123 -58c-11 32 -36 57 -73 71v-151c105 -26 222 -63 222 -204c0 -139 -105 -202 -222 -216v-65h-100v64c-113 9 -206 53 -261 168z
M378 115c36 9 67 31 67 71c0 36 -27 55 -67 69v-140zM278 567c-41 -7 -71 -29 -71 -71c0 -34 29 -49 71 -62v133z" />
    <glyph glyph-name="percent" unicode="%" horiz-adv-x="709" 
d="M434 680h117l-273 -680h-118zM170 370c-111 0 -150 100 -150 160c0 51 33 160 150 160s150 -109 150 -160c0 -60 -38 -160 -150 -160zM170 604c-39 0 -43 -45 -43 -74c0 -42 14 -75 43 -75s44 34 44 74c0 30 -4 75 -44 75zM541 -10c-112 0 -151 99 -151 159
c0 51 34 161 151 161s150 -110 150 -161c0 -60 -39 -159 -150 -159zM541 224c-39 0 -44 -45 -44 -74c0 -43 14 -74 44 -74c28 0 44 32 44 73c0 30 -5 75 -44 75z" />
    <glyph glyph-name="ampersand" unicode="&#x26;" horiz-adv-x="667" 
d="M358 171l-108 132c-32 -21 -88 -60 -88 -102c0 -46 42 -89 89 -89c40 0 80 33 107 59zM285 574c-23 0 -47 -15 -47 -42c0 -29 24 -50 39 -70c22 15 57 35 57 67c0 30 -22 45 -49 45zM664 -1h-165l-60 75c-50 -48 -113 -84 -184 -84c-121 0 -219 85 -219 209
c0 77 39 132 100 175c12 9 23 16 35 25c-33 36 -56 76 -56 125c0 100 73 166 171 166c93 0 169 -60 169 -157c0 -71 -48 -116 -100 -155l93 -114c24 27 46 56 68 85l88 -89c-23 -34 -49 -64 -76 -94z" />
    <glyph glyph-name="quotesingle" unicode="'" horiz-adv-x="151" 
d="M20 680h114l-21 -267h-73z" />
    <glyph glyph-name="parenleft" unicode="(" horiz-adv-x="285" 
d="M154 680h99s-124 -144 -124 -446c0 -310 124 -448 124 -448h-99s-118 136 -118 448c0 316 118 446 118 446z" />
    <glyph glyph-name="parenright" unicode=")" horiz-adv-x="285" 
d="M36 680h99s118 -130 118 -446c0 -312 -118 -448 -118 -448h-99s123 138 123 448c0 302 -123 446 -123 446z" />
    <glyph glyph-name="asterisk" unicode="*" horiz-adv-x="508" 
d="M90 615l140 -73l-25 158h99l-25 -158l141 73l30 -92l-154 -27l109 -109l-78 -58l-72 137l-70 -137l-81 58l111 109l-155 27z" />
    <glyph glyph-name="plus" unicode="+" horiz-adv-x="438" 
d="M261 220v-165h-82v165h-164v83h164v162h82v-162h163v-83h-163z" />
    <glyph glyph-name="comma" unicode="," horiz-adv-x="243" 
d="M212 136l-127 -281h-82l61 281h148z" />
    <glyph glyph-name="hyphen" unicode="-" horiz-adv-x="338" 
d="M324 220h-309v83h309v-83z" />
    <glyph glyph-name="period" unicode="." horiz-adv-x="278" 
d="M52 77c0 49 39 87 88 87c48 0 88 -38 88 -87c0 -48 -40 -87 -88 -87c-49 0 -88 39 -88 87z" />
    <glyph glyph-name="slash" unicode="/" horiz-adv-x="516" 
d="M4 -208l384 888h138l-385 -888h-137z" />
    <glyph glyph-name="zero" unicode="0" horiz-adv-x="590" 
d="M295 554c-97 0 -122 -129 -122 -215c0 -95 25 -215 122 -215c96 0 123 123 123 213c0 88 -24 217 -123 217zM295 -12c-196 0 -273 208 -273 350c0 123 65 352 273 352s273 -229 273 -352c0 -142 -77 -350 -273 -350z" />
    <glyph glyph-name="one" unicode="1" horiz-adv-x="397" 
d="M275 133h101v-133h-354v133h103v415h-103v132h253v0v-2v-545z" />
    <glyph glyph-name="two" unicode="2" horiz-adv-x="590" 
d="M558 0h-574s84 79 180 175c149 149 264 259 188 352c-36 44 -108 38 -145 0c-19 -20 -31 -58 -31 -86h-150c0 68 26 130 74 178s112 74 179 74c68 0 131 -26 179 -74c74 -74 74 -189 35 -266c-58 -114 -191 -220 -191 -220h256v-133v0z" />
    <glyph glyph-name="three" unicode="3" 
d="M454 345c48 -40 75 -92 75 -148s-27 -109 -75 -149s-113 -62 -181 -62s-134 22 -182 62s-75 93 -75 149c0 11 1 21 3 32h167c-5 -27 3 -56 24 -77c17 -17 39 -25 62 -25s46 8 63 25s25 40 25 63s-8 45 -25 62s-40 25 -63 25c-8 0 -16 -1 -24 -3v18v89v6c8 -3 16 -5 24 -5
c21 0 40 8 55 23s23 34 23 55s-8 39 -23 54s-34 23 -55 23s-39 -8 -54 -23c-18 -18 -26 -43 -22 -67h-148c-2 11 -3 22 -3 33c0 50 24 97 67 133s100 55 161 55s118 -19 161 -55s66 -83 66 -133s-23 -98 -66 -134c-2 -2 -5 -4 -8 -6c10 -6 19 -13 28 -20z" />
    <glyph glyph-name="four" unicode="4" horiz-adv-x="594" 
d="M580 263v-134h-88v-129h-150v129h-337v110l272 442h215v-418h88zM170 263h172v292z" />
    <glyph glyph-name="five" unicode="5" horiz-adv-x="623" 
d="M586 243c-1 -67 -29 -137 -81 -184s-122 -73 -196 -73s-143 26 -195 73s-81 110 -81 177v5h152c2 -27 13 -54 34 -75c22 -22 51 -34 82 -34s59 12 81 34s34 51 34 82s-12 60 -34 82s-50 34 -81 34s-60 -12 -82 -34c-5 -5 -11 -12 -15 -18l-143 35v0h-2l81 333h396v-132
h-277l-20 -80c203 45 350 -51 347 -225z" />
    <glyph glyph-name="six" unicode="6" horiz-adv-x="596" 
d="M575 236c0 -67 -29 -130 -81 -177s-122 -73 -196 -73s-143 26 -195 73s-81 110 -81 177c0 46 14 91 40 129l215 315h183l-164 -216c161 28 279 -86 279 -228zM419 248c0 67 -56 123 -123 123c-33 0 -63 -13 -86 -36c-48 -48 -48 -125 0 -173c23 -23 53 -36 86 -36
c67 0 123 55 123 122z" />
    <glyph glyph-name="seven" unicode="7" horiz-adv-x="581" 
d="M33 0l329 548h-313v132h549l-386 -680h-179z" />
    <glyph glyph-name="eight" unicode="8" horiz-adv-x="560" 
d="M508 505c0 -54 -29 -104 -74 -140c62 -27 103 -99 103 -168c0 -56 -27 -109 -75 -149s-113 -62 -181 -62s-134 22 -182 62s-75 93 -75 149c0 68 44 143 103 168c-45 35 -74 86 -74 140c0 111 113 188 228 188s227 -77 227 -188zM363 490c0 45 -37 82 -82 82
c-22 0 -42 -8 -58 -24c-32 -32 -32 -84 0 -116c16 -16 36 -25 58 -25c45 0 82 38 82 83zM281 116c55 0 100 43 100 95s-45 95 -100 95c-27 0 -52 -10 -71 -28c-39 -37 -39 -97 0 -134c19 -18 44 -28 71 -28z" />
    <glyph glyph-name="nine" unicode="9" horiz-adv-x="585" 
d="M16 444c0 67 29 130 81 177s122 73 196 73s144 -26 196 -73s81 -110 81 -177c0 -46 -14 -91 -40 -129l-216 -315h-183l165 216c-161 -28 -280 86 -280 228zM172 432c0 -67 56 -122 123 -122c33 0 63 13 86 36c48 48 48 125 0 173c-23 23 -53 35 -86 35
c-67 0 -123 -55 -123 -122z" />
    <glyph glyph-name="colon" unicode=":" horiz-adv-x="304" 
d="M64 426c0 49 40 88 89 88c48 0 88 -39 88 -88c0 -48 -40 -87 -88 -87c-49 0 -89 39 -89 87zM64 77c0 49 40 87 89 87c48 0 88 -38 88 -87c0 -48 -40 -87 -88 -87c-49 0 -89 39 -89 87z" />
    <glyph glyph-name="semicolon" unicode=";" horiz-adv-x="304" 
d="M242 136l-127 -271h-81l61 271h147zM64 426c0 49 40 88 89 88c48 0 88 -39 88 -88c0 -48 -40 -87 -88 -87c-49 0 -89 39 -89 87z" />
    <glyph glyph-name="less" unicode="&#x3c;" horiz-adv-x="529" 
d="M471 -4l-411 191v149l411 191v-119l-321 -147l321 -147v-118z" />
    <glyph glyph-name="equal" unicode="=" horiz-adv-x="338" 
d="M324 310h-309v83h309v-83zM324 130h-309v83h309v-83z" />
    <glyph glyph-name="greater" unicode="&#x3e;" horiz-adv-x="529" 
d="M471 187l-411 -191v118l320 147l-320 147v119l411 -191v-149z" />
    <glyph glyph-name="question" unicode="?" horiz-adv-x="483" 
d="M159 77c0 49 39 87 87 87c49 0 89 -38 89 -87c0 -48 -40 -87 -89 -87c-48 0 -87 39 -87 87zM45 555c26 90 101 135 200 135c103 0 206 -57 206 -183c0 -117 -142 -143 -142 -211v-81h-127v81c0 146 142 140 142 211c0 53 -40 70 -79 70c-55 0 -86 -46 -86 -74z" />
    <glyph glyph-name="at" unicode="@" horiz-adv-x="529" 
d="M323 193c60 0 60 94 0 94c-61 0 -61 -94 0 -94zM455 358v-247h-88c-14 -4 -29 -8 -44 -8c-76 0 -135 63 -135 137c0 91 89 161 177 128c-9 18 -30 31 -66 31c-96 0 -156 -64 -156 -159c0 -92 79 -160 166 -160h143v-80h-143c-142 0 -254 92 -254 240
c0 140 93 250 244 250c87 0 156 -53 156 -132z" />
    <glyph glyph-name="A" unicode="A" horiz-adv-x="658" 
d="M415 260l-86 233l-87 -233h173zM670 0h-162l-49 137h-259l-50 -137h-161l277 680h126z" />
    <glyph glyph-name="B" unicode="B" horiz-adv-x="548" 
d="M388 204c0 45 -39 78 -84 78h-94v-156h94c45 0 84 33 84 78zM341 482c0 45 -36 72 -79 72h-52v-150h52c43 0 79 35 79 78zM541 196c0 -116 -75 -196 -205 -196h-276v680h235c115 0 190 -77 190 -170c0 -68 -31 -122 -82 -145c76 -17 138 -77 138 -169z" />
    <glyph glyph-name="C" unicode="C" horiz-adv-x="704" 
d="M688 164c-61 -104 -173 -174 -303 -174c-193 0 -349 157 -349 350s156 350 349 350c129 0 241 -70 302 -173c-1 1 -138 -63 -139 -62c-30 58 -97 95 -163 95c-110 0 -198 -95 -198 -210s88 -210 198 -210c68 0 136 41 165 99c0 1 138 -66 138 -65z" />
    <glyph glyph-name="D" unicode="D" horiz-adv-x="619" 
d="M208 138h45c115 0 194 89 194 202s-79 201 -194 201h-45v-403zM60 680h202c192 0 338 -148 338 -340s-145 -340 -338 -340h-202v680z" />
    <glyph glyph-name="E" unicode="E" horiz-adv-x="503" 
d="M454 136v-136h-394v680h394v-135h-244v-136h235v-136h-235v-137h244z" />
    <glyph glyph-name="F" unicode="F" horiz-adv-x="480" 
d="M445 273h-235v-273h-150v680h394v-135h-244v-136h235v-136z" />
    <glyph glyph-name="G" unicode="G" horiz-adv-x="770" 
d="M704 511l-138 -60c-34 72 -101 99 -166 99c-108 0 -198 -97 -198 -212s90 -212 198 -212c65 0 150 21 187 124h-173v113h335v-23c0 -193 -154 -350 -349 -350c-192 0 -350 158 -350 350s158 350 350 350c128 0 243 -71 304 -179z" />
    <glyph glyph-name="H" unicode="H" horiz-adv-x="652" 
d="M435 680h160v-680h-160v273h-225v-273h-150v680h150v-271h225v271z" />
    <glyph glyph-name="I" unicode="I" horiz-adv-x="268" 
d="M210 0h-150v680h150v-680z" />
    <glyph glyph-name="J" unicode="J" horiz-adv-x="425" 
d="M115 135c107 0 112 60 112 131v414h150v-425c0 -195 -99 -265 -262 -265c-36 0 -66 4 -95 11v184h3c17 -35 47 -50 92 -50z" />
    <glyph glyph-name="K" unicode="K" horiz-adv-x="615" 
d="M210 295v-295h-150v680h150v-294l214 294h192l-261 -340l272 -340h-203z" />
    <glyph glyph-name="L" unicode="L" horiz-adv-x="486" 
d="M60 0v680h150v-544h244v-136h-394z" />
    <glyph glyph-name="M" unicode="M" horiz-adv-x="910" 
d="M908 0h-165l-80 468l-133 -468h-146l-134 468l-80 -468h-166l133 680h178l142 -477l141 477h178z" />
    <glyph glyph-name="N" unicode="N" horiz-adv-x="719" 
d="M660 0h-150l-300 435v-435h-150v680h150l300 -435v435h150v-680z" />
    <glyph glyph-name="O" unicode="O" horiz-adv-x="768" 
d="M585 341c0 104 -96 200 -200 200s-200 -96 -200 -200s96 -201 200 -201s200 97 200 201zM736 340c0 -188 -163 -350 -351 -350s-349 162 -349 350s161 350 349 350s351 -162 351 -350z" />
    <glyph glyph-name="P" unicode="P" horiz-adv-x="535" 
d="M210 243v-243h-150v680h255c110 0 208 -91 208 -220c0 -138 -98 -217 -208 -217h-105zM290 554h-80v-193h80c45 0 90 35 90 99c0 62 -45 94 -90 94z" />
    <glyph glyph-name="Q" unicode="Q" horiz-adv-x="768" 
d="M585 341c0 104 -96 200 -200 200s-200 -96 -200 -200s96 -201 200 -201c28 0 55 7 79 19l-91 92l93 91l93 -95c16 29 26 60 26 94zM572 48c-54 -36 -120 -58 -187 -58c-188 0 -349 162 -349 350s161 350 349 350s351 -162 351 -350c0 -74 -28 -145 -70 -203l95 -97
l-94 -91z" />
    <glyph glyph-name="R" unicode="R" horiz-adv-x="546" 
d="M210 243v-243h-150v680h255c110 0 208 -91 208 -220c0 -115 -70 -189 -156 -210l196 -250h-180l-172 243h-1zM290 554h-80v-199h80c45 0 92 38 92 102c0 62 -47 97 -92 97z" />
    <glyph glyph-name="S" unicode="S" horiz-adv-x="609" 
d="M16 154l133 66c36 -79 114 -110 173 -110c47 0 118 15 118 76c0 133 -389 48 -389 299c0 140 129 205 253 205c115 0 224 -48 269 -145l-123 -58c-16 47 -67 81 -143 81c-55 0 -102 -21 -102 -72c0 -121 394 -34 394 -293c0 -160 -137 -218 -276 -218
c-114 0 -244 37 -307 169z" />
    <glyph glyph-name="T" unicode="T" horiz-adv-x="545" 
d="M349 545v-545h-150v545h-195v135h539v-135h-194z" />
    <glyph glyph-name="U" unicode="U" horiz-adv-x="650" 
d="M457 680h150v-416c0 -182 -104 -274 -281 -274s-281 92 -281 274v416h151v-393c0 -95 28 -147 130 -147c103 0 131 52 131 147v393z" />
    <glyph glyph-name="V" unicode="V" horiz-adv-x="686" 
d="M685 680l-276 -680h-129l-276 680h162l141 -382l38 -107l37 107l140 382h163z" />
    <glyph glyph-name="W" unicode="W" horiz-adv-x="881" 
d="M892 680l-131 -680h-178l-142 477l-141 -477h-178l-133 680h165l81 -469l133 469h147l133 -469l80 469h164z" />
    <glyph glyph-name="X" unicode="X" horiz-adv-x="666" 
d="M662 0h-183l-144 229l-146 -229h-184l237 340l-237 340h184l146 -229l144 229h183l-236 -340z" />
    <glyph glyph-name="Y" unicode="Y" horiz-adv-x="660" 
d="M255 0v324l-251 356h181l147 -227l146 227h179l-252 -356v-324h-150z" />
    <glyph glyph-name="Z" unicode="Z" horiz-adv-x="566" 
d="M533 136v-136h-513l284 545h-264v135h508l-284 -544h269z" />
    <glyph glyph-name="bracketleft" unicode="[" horiz-adv-x="329" 
d="M201 -115h96v-105h-237v900h237v-103h-96v-692z" />
    <glyph glyph-name="backslash" unicode="\" horiz-adv-x="516" 
d="M4 680h138l384 -888h-137z" />
    <glyph glyph-name="bracketright" unicode="]" horiz-adv-x="329" 
d="M36 -220v105h94v692h-94v103h236v-900h-236z" />
    <glyph glyph-name="asciicircum" unicode="^" horiz-adv-x="563" 
d="M558 318h-146l-128 266l-130 -266h-146l196 362h158z" />
    <glyph glyph-name="underscore" unicode="_" horiz-adv-x="563" 
d="M564 -165h-564v102h564v-102z" />
    <glyph glyph-name="grave" unicode="`" horiz-adv-x="327" 
d="M43 929h128l118 -179h-112z" />
    <glyph glyph-name="a" unicode="a" horiz-adv-x="548" 
d="M262 451c175.194 0 243 -87.4395 243 -200v-251h-159v64c-71 -55 -120 -74 -166 -74c-64 0 -131 31 -131 121c0 40.54 32.8135 114.863 35 121l261 35c0 47 -32 84 -90 86h-6c-49 0 -99 -27 -129 -63l-67 86c55 52 117 75 209 75zM346 130v71l-131 -25
c-11.126 -42.2783 -5.6709 -81 39 -81c39 0 70 20 92 35z" />
    <glyph glyph-name="b" unicode="b" horiz-adv-x="607" 
d="M210 220c0 -58 45 -110 105 -110s105 52 105 110s-45 110 -105 110s-105 -52 -105 -110zM210 0h-150v680h150v-293c39 48 94 64 151 64c124 0 219 -109 219 -231s-95 -230 -219 -230c-57 0 -121 18 -151 63v-53z" />
    <glyph glyph-name="c" unicode="c" horiz-adv-x="516" 
d="M503 121c-32 -74 -111 -131 -226 -131c-147 0 -244 106 -244 232s91 229 244 229c105 0 183 -48 219 -115l-128 -59c-4 40 -40 60 -86 60c-70 0 -90 -63 -90 -114c0 -50 23 -116 90 -116c52 0 84 27 86 70z" />
    <glyph glyph-name="d" unicode="d" horiz-adv-x="613" 
d="M404 220c0 58 -44 110 -104 110s-104 -52 -104 -110s44 -110 104 -110s104 52 104 110zM555 680v-680h-151v53c-30 -45 -95 -63 -150 -63c-124 0 -218 108 -218 230s94 231 218 231c55 0 111 -16 150 -64v293h151z" />
    <glyph glyph-name="e" unicode="e" 
d="M196 293h197s-12 65 -97 65c-88 0 -100 -65 -100 -65zM507 104c-41 -77 -119 -114 -215 -114c-152 0 -256 90 -256 230c0 138 108 231 256 231c135 0 245 -80 245 -221c0 -9 -1 -19 -1 -28h-348c0 -72 51 -104 104 -104c41 0 85 18 108 54z" />
    <glyph glyph-name="f" unicode="f" horiz-adv-x="360" 
d="M236 690c79 0 110 -30 110 -30v-117s-18 30 -55 30c-29 0 -48 -17 -48 -60v-72h103v-117h-103v-324h-150v324h-63v117h63v91c0 109 46 158 143 158z" />
    <glyph glyph-name="g" unicode="g" horiz-adv-x="601" 
d="M297 110c60 0 104 52 104 111c0 58 -44 111 -104 111s-105 -53 -105 -111c0 -59 45 -111 105 -111zM51 -115l125 55c26 -55 65 -79 113 -79c65 0 112 61 112 124v69c-30 -46 -95 -64 -150 -64c-124 0 -218 109 -218 231s94 230 218 230c55 0 107 -14 150 -64v54h151v-440
c0 -145 -115 -251 -255 -251c-100 0 -209 43 -246 135z" />
    <glyph glyph-name="h" unicode="h" horiz-adv-x="554" 
d="M511 250v-250h-150v250c0 52 -19 80 -66 80s-85 -50 -85 -110v-220h-150v680h150v-293c30 38 77 64 135 64c117 0 166 -81 166 -201z" />
    <glyph glyph-name="i" unicode="i" horiz-adv-x="273" 
d="M49 592c0 49 39 88 88 88c48 0 88 -39 88 -88c0 -48 -40 -88 -88 -88c-49 0 -88 40 -88 88zM212 0h-151v441h151v-441z" />
    <glyph glyph-name="j" unicode="j" horiz-adv-x="278" 
d="M-24 -238v143s22 -15 45 -15c45 0 39 44 39 81v470h160v-475c0 -109 -49 -216 -172 -216c-22 0 -48 4 -72 12zM52 592c0 49 40 88 88 88s88 -39 88 -88c0 -48 -40 -88 -88 -88s-88 40 -88 88z" />
    <glyph glyph-name="k" unicode="k" horiz-adv-x="525" 
d="M210 196v-196h-150v680h150v-415l141 176h186l-190 -209l210 -232h-193z" />
    <glyph glyph-name="l" unicode="l" horiz-adv-x="282" 
d="M268 0c-15 -6 -38 -10 -66 -10c-97 0 -142 43 -142 152v538h150v-509c0 -47.0693 23 -64 58 -47v-124z" />
    <glyph glyph-name="m" unicode="m" horiz-adv-x="842" 
d="M504 224v-224h-149v245c0 43 -14 85 -64 85c-51 0 -81 -65 -81 -110v-220h-150v441h150v-54c30 38 74 64 123 64c55 0 103 -25 135 -75c43 55 94 75 162 75c115 0 170 -92 170 -206v-245h-150v245c0 43 -14 85 -64 85c-58 0 -82 -56 -82 -106z" />
    <glyph glyph-name="n" unicode="n" horiz-adv-x="554" 
d="M511 250v-250h-150v250c0 52 -19 80 -66 80s-85 -50 -85 -110v-220h-150v441h150v-54c30 38 77 64 135 64c117 0 166 -81 166 -201z" />
    <glyph glyph-name="o" unicode="o" horiz-adv-x="567" 
d="M284 104c80 0 102 59 102 114s-24 116 -102 116c-79 0 -102 -61 -102 -116s20 -114 102 -114zM284 450c137 0 251 -92 251 -230c0 -141 -111 -229 -251 -229c-141 0 -251 88 -251 229c0 138 113 230 251 230z" />
    <glyph glyph-name="p" unicode="p" horiz-adv-x="608" 
d="M210 220c0 -58 45 -110 105 -110s105 52 105 110s-45 110 -105 110s-105 -52 -105 -110zM210 -250h-150v691h150v-54c39 48 94 64 151 64c124 0 219 -109 219 -231s-95 -230 -219 -230c-57 0 -121 18 -151 63v-303z" />
    <glyph glyph-name="q" unicode="q" horiz-adv-x="613" 
d="M404 220c0 58 -44 110 -104 110s-104 -52 -104 -110s44 -110 104 -110s104 52 104 110zM555 441v-691h-151v303c-30 -45 -95 -63 -150 -63c-124 0 -218 108 -218 230s94 231 218 231c55 0 111 -16 150 -64v54h151z" />
    <glyph glyph-name="r" unicode="r" horiz-adv-x="379" 
d="M309 330c-55 0 -99 -57 -99 -110v-220h-150v441h150v-54c23 34 61 64 116 64c13 0 33 -5 45 -10v-137h-3c-15 17 -36 26 -59 26z" />
    <glyph glyph-name="s" unicode="s" horiz-adv-x="503" 
d="M113 165c41 -87 211 -92 211 -33c0 76 -285 2 -285 185c0 76 80 134 215 134c96 0 165 -40 193 -88l-109 -53c-14 50 -154 72 -154 14c0 -72 292 4 292 -181c0 -115 -126 -153 -217 -153c-109 0 -203 34 -256 121z" />
    <glyph glyph-name="t" unicode="t" horiz-adv-x="346" 
d="M249 324v-324h-149v324h-80v117h80v177h149v-177h80v-117h-80z" />
    <glyph glyph-name="u" unicode="u" 
d="M50 190v251h150v-251c0 -51 19 -80 66 -80s85 51 85 110v221h150v-441h-150v54c-30 -38 -78 -64 -136 -64c-117 0 -165 82 -165 200z" />
    <glyph glyph-name="v" unicode="v" horiz-adv-x="490" 
d="M503 441l-167 -441h-178l-168 441h151l105 -315l105 315h152z" />
    <glyph glyph-name="w" unicode="w" horiz-adv-x="782" 
d="M803 441l-155 -441h-171l-86 276l-86 -276h-170l-152 441h163l90 -288l98 288h115l98 -288l91 288h165z" />
    <glyph glyph-name="x" unicode="x" horiz-adv-x="508" 
d="M-5 440h172l88 -136l87 136h173l-164 -218l179 -222h-183l-92 136l-92 -136h-183l179 222z" />
    <glyph glyph-name="y" unicode="y" horiz-adv-x="490" 
d="M239 -250h-155l100 250h-26l-168 441h151l105 -315l105 315h152l-167 -441z" />
    <glyph glyph-name="z" unicode="z" horiz-adv-x="481" 
d="M468 118v-118h-464l233 327h-213v114h442l-211 -323h213z" />
    <glyph glyph-name="braceleft" unicode="{" horiz-adv-x="368" 
d="M221 -224c-102 0 -124 90 -124 175v177c0 24 -31 35 -51 39v130c39 10 51 18 51 58v158c0 86 23 170 125 170c28 0 57 -3 85 -4v-121c-51 0 -91 6 -91 -49v-160c0 -45 -33 -86 -67 -121c24 -26 67 -58 67 -94v-182c0 -11 20 -46 32 -50c4 -2 12 -2 16 -2c14 0 29 1 43 2
v-125c-29 1 -58 -1 -86 -1z" />
    <glyph glyph-name="bar" unicode="|" horiz-adv-x="268" 
d="M200 -224h-130v904h130v-904z" />
    <glyph glyph-name="braceright" unicode="}" horiz-adv-x="355" 
d="M132 -224c-28 0 -57 2 -86 1v125c14 -1 28 -2 42 -2c4 0 12 0 16 2c12 4 32 39 32 50v182c0 36 43 68 67 94c-34 35 -67 76 -67 121v160c0 55 -39 49 -90 49v121c28 1 56 4 84 4c102 0 125 -84 125 -170v-158c0 -40 13 -48 52 -58v-130c-20 -4 -52 -15 -52 -39v-177
c0 -85 -21 -175 -123 -175z" />
    <glyph glyph-name="asciitilde" unicode="~" horiz-adv-x="654" 
d="M427 573c-79 0 -141 57 -215 57c-34 0 -61 -48 -71 -75l-91 55c33 55 103 141 171 141c83 0 148 -55 216 -55c34 0 62 39 74 67l94 -54c-36 -53 -111 -136 -178 -136z" />
    <glyph glyph-name="Adieresis" unicode="&#xc4;" horiz-adv-x="658" 
d="M372 837c0 49 39 88 88 88c48 0 88 -39 88 -88c0 -48 -40 -87 -88 -87c-49 0 -88 39 -88 87zM110 837c0 49 39 88 88 88c48 0 88 -39 88 -88c0 -48 -40 -87 -88 -87c-49 0 -88 39 -88 87zM415 260l-86 233l-87 -233h173zM670 0h-162l-49 137h-259l-50 -137h-161l277 680
h126z" />
    <glyph glyph-name="Aring" unicode="&#xc5;" horiz-adv-x="658" 
d="M329 707.087c38.71 0 49.8643 28.2119 49.8643 55.1113c0 26.9004 -12.4668 55.1123 -49.8643 55.1123s-49.207 -28.2119 -49.207 -55.1123c0 -26.8994 10.4971 -55.1113 49.207 -55.1113zM329 873.735c66.2666 0 120.723 -43.959 120.723 -110.882
c0 -68.2324 -53.1445 -110.224 -120.723 -110.224s-120.723 41.9912 -120.723 110.224c0 66.9229 54.4561 110.882 120.723 110.882zM415 260l-86 233l-87 -233h173zM670 0h-162l-49 137h-259l-50 -137h-161l277 680h126z" />
    <glyph glyph-name="Ccedilla" unicode="&#xc7;" horiz-adv-x="704" 
d="M353.5 -1.0332h63l-42 -93c8 1 13 3 20 3s13 -2 18 -3c32 -8 49 -38 49 -74c0 -13 -3 -29 -8 -42c-18 -43 -63 -60 -112 -60c-30 0 -62 6 -89 17l-8 3l27 55l7 -1c13 -4 27 -9 40 -11c7 -1 15 -1 20 -1c38 0 55 21 55 38c0 12 -9 22 -26 25c-4 1 -9 1 -13 1
c-17 0 -38 -4 -54 -6l-14 -2zM688 164c-61 -104 -173 -174 -303 -174c-193 0 -349 157 -349 350s156 350 349 350c129 0 241 -70 302 -173c-1 1 -138 -63 -139 -62c-30 58 -97 95 -163 95c-110 0 -198 -95 -198 -210s88 -210 198 -210c68 0 136 41 165 99
c0 1 138 -66 138 -65z" />
    <glyph glyph-name="Eacute" unicode="&#xc9;" horiz-adv-x="511" 
d="M453 929l-135 -179h-111l117 179h129zM454 136v-136h-394v680h394v-135h-244v-136h235v-136h-235v-137h244z" />
    <glyph glyph-name="Ntilde" unicode="&#xd1;" horiz-adv-x="719" 
d="M464 894h90c0 -85 -44 -144 -121 -144c-68 0 -85 55 -140 55c-32 0 -42 -33 -42 -48h-85c0 67 41 142 121 142c66 0 101 -50 136 -50c15 0 41 4 41 45zM660 0h-150l-300 435v-435h-150v680h150l300 -435v435h150v-680z" />
    <glyph glyph-name="Odieresis" unicode="&#xd6;" horiz-adv-x="768" 
d="M428 837c0 49 39 88 88 88c48 0 88 -39 88 -88c0 -48 -40 -87 -88 -87c-49 0 -88 39 -88 87zM166 837c0 49 39 88 88 88c48 0 88 -39 88 -88c0 -48 -40 -87 -88 -87c-49 0 -88 39 -88 87zM585 341c0 104 -96 200 -200 200s-200 -96 -200 -200s96 -201 200 -201
s200 97 200 201zM736 340c0 -188 -163 -350 -351 -350s-349 162 -349 350s161 350 349 350s351 -162 351 -350z" />
    <glyph glyph-name="Udieresis" unicode="&#xdc;" horiz-adv-x="650" 
d="M369 837c0 49 39 88 88 88c48 0 88 -39 88 -88c0 -48 -40 -87 -88 -87c-49 0 -88 39 -88 87zM107 837c0 49 39 88 88 88c48 0 88 -39 88 -88c0 -48 -40 -87 -88 -87c-49 0 -88 39 -88 87zM457 680h150v-416c0 -182 -104 -274 -281 -274s-281 92 -281 274v416h151v-393
c0 -95 28 -147 130 -147c103 0 131 52 131 147v393z" />
    <glyph glyph-name="aacute" unicode="&#xe1;" horiz-adv-x="548" 
d="M452 690l-134 -179h-112l118 179h128zM262 451c175.194 0 243 -87.4395 243 -200v-251h-159v64c-71 -55 -120 -74 -166 -74c-64 0 -131 31 -131 121c0 40.54 32.8135 114.863 35 121l261 35c0 47 -32 84 -90 86h-6c-49 0 -99 -27 -129 -63l-67 86c55 52 117 75 209 75z
M346 130v71l-131 -25c-11.126 -42.2783 -5.6709 -81 39 -81c39 0 70 20 92 35z" />
    <glyph glyph-name="agrave" unicode="&#xe0;" horiz-adv-x="548" 
d="M72 690h128l118 -179h-112zM262 451c175.194 0 243 -87.4395 243 -200v-251h-159v64c-71 -55 -120 -74 -166 -74c-64 0 -131 31 -131 121c0 40.54 32.8135 114.863 35 121l261 35c0 47 -32 84 -90 86h-6c-49 0 -99 -27 -129 -63l-67 86c55 52 117 75 209 75zM346 130v71
l-131 -25c-11.126 -42.2783 -5.6709 -81 39 -81c39 0 70 20 92 35z" />
    <glyph glyph-name="acircumflex" unicode="&#xe2;" horiz-adv-x="548" 
d="M321 720l128 -209h-112l-76 151l-74 -151h-112l127 209h119zM262 451c175.194 0 243 -87.4395 243 -200v-251h-159v64c-71 -55 -120 -74 -166 -74c-64 0 -131 31 -131 121c0 40.54 32.8135 114.863 35 121l261 35c0 47 -32 84 -90 86h-6c-49 0 -99 -27 -129 -63l-67 86
c55 52 117 75 209 75zM346 130v71l-131 -25c-11.126 -42.2783 -5.6709 -81 39 -81c39 0 70 20 92 35z" />
    <glyph glyph-name="adieresis" unicode="&#xe4;" horiz-adv-x="548" 
d="M305 598c0 49 39 88 88 88c48 0 88 -39 88 -88c0 -48 -40 -87 -88 -87c-49 0 -88 39 -88 87zM43 598c0 49 39 88 88 88c48 0 88 -39 88 -88c0 -48 -40 -87 -88 -87c-49 0 -88 39 -88 87zM262 451c175.194 0 243 -87.4395 243 -200v-251h-159v64
c-71 -55 -120 -74 -166 -74c-64 0 -131 31 -131 121c0 40.54 32.8135 114.863 35 121l261 35c0 47 -32 84 -90 86h-6c-49 0 -99 -27 -129 -63l-67 86c55 52 117 75 209 75zM346 130v71l-131 -25c-11.126 -42.2783 -5.6709 -81 39 -81c39 0 70 20 92 35z" />
    <glyph glyph-name="atilde" unicode="&#xe3;" horiz-adv-x="548" 
d="M366 655h90c0 -85 -44 -144 -121 -144c-68 0 -85 55 -140 55c-32 0 -42 -33 -42 -48h-85c0 67 41 142 121 142c66 0 101 -50 136 -50c15 0 41 4 41 45zM262 451c175.194 0 243 -87.4395 243 -200v-251h-159v64c-71 -55 -120 -74 -166 -74c-64 0 -131 31 -131 121
c0 40.54 32.8135 114.863 35 121l261 35c0 47 -32 84 -90 86h-6c-49 0 -99 -27 -129 -63l-67 86c55 52 117 75 209 75zM346 130v71l-131 -25c-11.126 -42.2783 -5.6709 -81 39 -81c39 0 70 20 92 35z" />
    <glyph glyph-name="aring" unicode="&#xe5;" horiz-adv-x="548" 
d="M262 565.457c38.71 0 49.8643 28.2119 49.8643 55.1113c0 26.9004 -12.4668 55.1123 -49.8643 55.1123s-49.207 -28.2119 -49.207 -55.1123c0 -26.8994 10.4971 -55.1113 49.207 -55.1113zM262 732.105c66.2666 0 120.723 -43.959 120.723 -110.882
c0 -68.2324 -53.1445 -110.224 -120.723 -110.224s-120.723 41.9912 -120.723 110.224c0 66.9229 54.4561 110.882 120.723 110.882zM262 451c175.194 0 243 -87.4395 243 -200v-251h-159v64c-71 -55 -120 -74 -166 -74c-64 0 -131 31 -131 121
c0 40.54 32.8135 114.863 35 121l261 35c0 47 -32 84 -90 86h-6c-49 0 -99 -27 -129 -63l-67 86c55 52 117 75 209 75zM346 130v71l-131 -25c-11.126 -42.2783 -5.6709 -81 39 -81c39 0 70 20 92 35z" />
    <glyph glyph-name="ccedilla" unicode="&#xe7;" horiz-adv-x="516" 
d="M245.5 -1.0332h63l-42 -93c8 1 13 3 20 3s13 -2 18 -3c32 -8 49 -38 49 -74c0 -13 -3 -29 -8 -42c-18 -43 -63 -60 -112 -60c-30 0 -62 6 -89 17l-8 3l27 55l7 -1c13 -4 27 -9 40 -11c7 -1 15 -1 20 -1c38 0 55 21 55 38c0 12 -9 22 -26 25c-4 1 -9 1 -13 1
c-17 0 -38 -4 -54 -6l-14 -2zM503 121c-32 -74 -111 -131 -226 -131c-147 0 -244 106 -244 232s91 229 244 229c105 0 183 -48 219 -115l-128 -59c-4 40 -40 60 -86 60c-70 0 -90 -63 -90 -114c0 -50 23 -116 90 -116c52 0 84 27 86 70z" />
    <glyph glyph-name="eacute" unicode="&#xe9;" 
d="M482 690l-134 -179h-112l118 179h128zM196 293h197s-12 65 -97 65c-88 0 -100 -65 -100 -65zM507 104c-41 -77 -119 -114 -215 -114c-152 0 -256 90 -256 230c0 138 108 231 256 231c135 0 245 -80 245 -221c0 -9 -1 -19 -1 -28h-348c0 -72 51 -104 104 -104
c41 0 85 18 108 54z" />
    <glyph glyph-name="egrave" unicode="&#xe8;" 
d="M102 690h128l118 -179h-112zM196 293h197s-12 65 -97 65c-88 0 -100 -65 -100 -65zM507 104c-41 -77 -119 -114 -215 -114c-152 0 -256 90 -256 230c0 138 108 231 256 231c135 0 245 -80 245 -221c0 -9 -1 -19 -1 -28h-348c0 -72 51 -104 104 -104c41 0 85 18 108 54z
" />
    <glyph glyph-name="ecircumflex" unicode="&#xea;" 
d="M351 720l128 -209h-112l-76 151l-74 -151h-112l127 209h119zM196 293h197s-12 65 -97 65c-88 0 -100 -65 -100 -65zM507 104c-41 -77 -119 -114 -215 -114c-152 0 -256 90 -256 230c0 138 108 231 256 231c135 0 245 -80 245 -221c0 -9 -1 -19 -1 -28h-348
c0 -72 51 -104 104 -104c41 0 85 18 108 54z" />
    <glyph glyph-name="edieresis" unicode="&#xeb;" 
d="M335 598c0 49 39 88 88 88c48 0 88 -39 88 -88c0 -48 -40 -87 -88 -87c-49 0 -88 39 -88 87zM73 598c0 49 39 88 88 88c48 0 88 -39 88 -88c0 -48 -40 -87 -88 -87c-49 0 -88 39 -88 87zM196 293h197s-12 65 -97 65c-88 0 -100 -65 -100 -65zM507 104
c-41 -77 -119 -114 -215 -114c-152 0 -256 90 -256 230c0 138 108 231 256 231c135 0 245 -80 245 -221c0 -9 -1 -19 -1 -28h-348c0 -72 51 -104 104 -104c41 0 85 18 108 54z" />
    <glyph glyph-name="iacute" unicode="&#xed;" horiz-adv-x="278" 
d="M329 689l-134 -179h-112l118 179h128zM215 0h-151v441h151v-441z" />
    <glyph glyph-name="igrave" unicode="&#xec;" horiz-adv-x="278" 
d="M-51 689h128l118 -179h-112zM215 0h-151v441h151v-441z" />
    <glyph glyph-name="icircumflex" unicode="&#xee;" horiz-adv-x="278" 
d="M198 719l128 -209h-112l-76 151l-74 -151h-112l127 209h119zM215 0h-151v441h151v-441z" />
    <glyph glyph-name="idieresis" unicode="&#xef;" horiz-adv-x="278" 
d="M182 597c0 49 39 88 88 88c48 0 88 -39 88 -88c0 -48 -40 -87 -88 -87c-49 0 -88 39 -88 87zM-80 597c0 49 39 88 88 88c48 0 88 -39 88 -88c0 -48 -40 -87 -88 -87c-49 0 -88 39 -88 87zM215 0h-151v441h151v-441z" />
    <glyph glyph-name="ntilde" unicode="&#xf1;" horiz-adv-x="554" 
d="M389.5 655h90c0 -85 -44 -144 -121 -144c-68 0 -85 55 -140 55c-32 0 -42 -33 -42 -48h-85c0 67 41 142 121 142c66 0 101 -50 136 -50c15 0 41 4 41 45zM511 250v-250h-150v250c0 52 -19 80 -66 80s-85 -50 -85 -110v-220h-150v441h150v-54c30 38 77 64 135 64
c117 0 166 -81 166 -201z" />
    <glyph glyph-name="oacute" unicode="&#xf3;" horiz-adv-x="567" 
d="M474 689l-134 -179h-112l118 179h128zM284 104c80 0 102 59 102 114s-24 116 -102 116c-79 0 -102 -61 -102 -116s20 -114 102 -114zM284 450c137 0 251 -92 251 -230c0 -141 -111 -229 -251 -229c-141 0 -251 88 -251 229c0 138 113 230 251 230z" />
    <glyph glyph-name="ograve" unicode="&#xf2;" horiz-adv-x="567" 
d="M94 689h128l118 -179h-112zM284 104c80 0 102 59 102 114s-24 116 -102 116c-79 0 -102 -61 -102 -116s20 -114 102 -114zM284 450c137 0 251 -92 251 -230c0 -141 -111 -229 -251 -229c-141 0 -251 88 -251 229c0 138 113 230 251 230z" />
    <glyph glyph-name="ocircumflex" unicode="&#xf4;" horiz-adv-x="567" 
d="M343 719l128 -209h-112l-76 151l-74 -151h-112l127 209h119zM284 104c80 0 102 59 102 114s-24 116 -102 116c-79 0 -102 -61 -102 -116s20 -114 102 -114zM284 450c137 0 251 -92 251 -230c0 -141 -111 -229 -251 -229c-141 0 -251 88 -251 229c0 138 113 230 251 230z
" />
    <glyph glyph-name="odieresis" unicode="&#xf6;" horiz-adv-x="567" 
d="M327 597c0 49 39 88 88 88c48 0 88 -39 88 -88c0 -48 -40 -87 -88 -87c-49 0 -88 39 -88 87zM65 597c0 49 39 88 88 88c48 0 88 -39 88 -88c0 -48 -40 -87 -88 -87c-49 0 -88 39 -88 87zM284 104c80 0 102 59 102 114s-24 116 -102 116c-79 0 -102 -61 -102 -116
s20 -114 102 -114zM284 450c137 0 251 -92 251 -230c0 -141 -111 -229 -251 -229c-141 0 -251 88 -251 229c0 138 113 230 251 230z" />
    <glyph glyph-name="otilde" unicode="&#xf5;" horiz-adv-x="567" 
d="M388 654h90c0 -85 -44 -144 -121 -144c-68 0 -85 55 -140 55c-32 0 -42 -33 -42 -48h-85c0 67 41 142 121 142c66 0 101 -50 136 -50c15 0 41 4 41 45zM284 104c80 0 102 59 102 114s-24 116 -102 116c-79 0 -102 -61 -102 -116s20 -114 102 -114zM284 450
c137 0 251 -92 251 -230c0 -141 -111 -229 -251 -229c-141 0 -251 88 -251 229c0 138 113 230 251 230z" />
    <glyph glyph-name="uacute" unicode="&#xfa;" 
d="M465.5 689l-134 -179h-112l118 179h128zM50 190v251h150v-251c0 -51 19 -80 66 -80s85 51 85 110v221h150v-441h-150v54c-30 -38 -78 -64 -136 -64c-117 0 -165 82 -165 200z" />
    <glyph glyph-name="ugrave" unicode="&#xf9;" 
d="M85.5 689h128l118 -179h-112zM50 190v251h150v-251c0 -51 19 -80 66 -80s85 51 85 110v221h150v-441h-150v54c-30 -38 -78 -64 -136 -64c-117 0 -165 82 -165 200z" />
    <glyph glyph-name="ucircumflex" unicode="&#xfb;" 
d="M334.5 719l128 -209h-112l-76 151l-74 -151h-112l127 209h119zM50 190v251h150v-251c0 -51 19 -80 66 -80s85 51 85 110v221h150v-441h-150v54c-30 -38 -78 -64 -136 -64c-117 0 -165 82 -165 200z" />
    <glyph glyph-name="udieresis" unicode="&#xfc;" 
d="M318.5 597c0 49 39 88 88 88c48 0 88 -39 88 -88c0 -48 -40 -87 -88 -87c-49 0 -88 39 -88 87zM56.5 597c0 49 39 88 88 88c48 0 88 -39 88 -88c0 -48 -40 -87 -88 -87c-49 0 -88 39 -88 87zM50 190v251h150v-251c0 -51 19 -80 66 -80s85 51 85 110v221h150v-441h-150v54
c-30 -38 -78 -64 -136 -64c-117 0 -165 82 -165 200z" />
    <glyph glyph-name="degree" unicode="&#xb0;" horiz-adv-x="438" 
d="M220 436c59 0 76 43 76 84s-19 84 -76 84s-75 -43 -75 -84s16 -84 75 -84zM220 690c101 0 184 -67 184 -169c0 -104 -81 -168 -184 -168s-184 64 -184 168c0 102 83 169 184 169z" />
    <glyph glyph-name="bullet" unicode="&#x2022;" horiz-adv-x="268" 
d="M16 349c0 70 59 127 129 127s125 -57 125 -127s-55 -126 -125 -126s-129 56 -129 126z" />
    <glyph glyph-name="paragraph" unicode="&#xb6;" horiz-adv-x="498" 
d="M415 680v-680h-60v622h-57v-622h-58v210c-120 17 -216 111 -216 235c0 132 110 235 240 235h151z" />
    <glyph glyph-name="germandbls" unicode="&#xdf;" horiz-adv-x="548" 
d="M301 396c36 28 40 52 40 88c0 45 -28 78 -71 78c-45 0 -60 -40 -60 -62v-500h-150v464c0 139 61 216 225 216c115 0 200 -77 200 -170c0 -68 -31 -122 -82 -145c76 -17 138 -77 138 -169c0 -116 -84 -196 -205 -196h-52s-1 114 0 116h20c36 0 84 38 84 83s-36 77 -80 83
c-53 7 -48 81 -7 114z" />
    <glyph glyph-name="registered" unicode="&#xae;" horiz-adv-x="725" 
d="M370 483h-34v-80h34c26 0 45 17 45 39c0 23 -19 41 -45 41zM512 205h-89l-63 137h-24v-137h-72v340h106c64 0 118 -48 118 -103c0 -32 -17 -60 -62 -88zM614 376c0 135 -112 239 -251 239c-137 0 -250 -104 -250 -239s113 -241 250 -241c139 0 251 106 251 241zM702 376
c0 -180 -153 -328 -339 -328c-185 0 -339 148 -339 328s154 326 339 326c186 0 339 -146 339 -326z" />
    <glyph glyph-name="copyright" unicode="&#xa9;" horiz-adv-x="725" 
d="M614 376c0 135 -112 239 -251 239c-137 0 -250 -104 -250 -239s113 -241 250 -241c139 0 251 106 251 241zM702 376c0 -180 -153 -328 -339 -328c-185 0 -339 148 -339 328s154 326 339 326c186 0 339 -146 339 -326zM518 282c-26 -38 -72 -86 -157 -86
c-103 0 -187 82 -187 181s84 181 187 181c85 0 131 -46 157 -84l-64 -38c-15 21 -44 44 -93 44c-57 0 -106 -48 -106 -103s49 -103 106 -103c28 0 66 5 92 41z" />
    <glyph glyph-name="trademark" unicode="&#x2122;" horiz-adv-x="757" 
d="M759 313h-89l-44 252l-71 -252h-79l-73 252l-43 -252h-89l72 367h96l76 -257l76 257h96zM186 607v-294h-82v294h-104v73h290v-73h-104z" />
    <glyph glyph-name="acute" unicode="&#xb4;" horiz-adv-x="327" 
d="M289 929l-134 -179h-112l118 179h128z" />
    <glyph glyph-name="dieresis" unicode="&#xa8;" horiz-adv-x="539" 
d="M314 867c0 49 39 88 88 88c48 0 88 -39 88 -88c0 -48 -40 -87 -88 -87c-49 0 -88 39 -88 87zM52 867c0 49 39 88 88 88c48 0 88 -39 88 -88c0 -48 -40 -87 -88 -87c-49 0 -88 39 -88 87z" />
    <glyph glyph-name="AE" unicode="&#xc6;" horiz-adv-x="782" 
d="M717 136v-136h-337h-45v137h-120l-50 -137h-161l278 680h435v-135h-243v-136h234v-136h-234v-137h243zM335 536l-77 -276h77v276z" />
    <glyph glyph-name="Oslash" unicode="&#xd8;" horiz-adv-x="768" 
d="M89 -4l-56 56l76 77c-46 59 -73 132 -73 211c0 188 161 350 349 350c82 0 156 -30 216 -78l82 80l55 -56l-81 -81c48 -60 79 -135 79 -215c0 -188 -163 -350 -351 -350c-83 0 -160 31 -221 81zM217 236l276 269c-33 21 -69 36 -108 36c-104 0 -200 -96 -200 -200
c0 -38 12 -72 32 -105zM273 178c34 -23 72 -38 112 -38c104 0 200 97 200 201c0 39 -13 76 -35 109z" />
    <glyph glyph-name="yen" unicode="&#xa5;" horiz-adv-x="613" 
 />
    <glyph glyph-name="ordmasculine" unicode="&#xba;" horiz-adv-x="570" 
d="M287 716c43 0 54 32 54 62s-12 61 -54 61s-54 -31 -54 -61s11 -62 54 -62zM287 901c72 0 133 -49 133 -122c0 -74 -59 -122 -133 -122s-134 48 -134 122c0 73 61 122 134 122z" />
    <glyph glyph-name="ae" unicode="&#xe6;" horiz-adv-x="884" 
d="M814 104c-41 -77 -118 -114 -214 -114c-82 0 -150 25 -195 71c-9 -4 -20 -7 -31 -12c-76 -33 -120 -59 -192 -59s-147 40 -130 155c4 36 33 87 33 87l263 33c2 13 6 25 10 37c-12 29 -40 49 -82 51c-50 2 -108 -20 -140 -57l-69 86c55 52 127 70 217 70
c85 0 124 -54 132 -65c46 41 110 64 184 64c135 0 245 -80 245 -221c0 -9 -2 -19 -2 -28h-347c0 -72 51 -104 104 -104c41 0 85 18 108 54zM503 293h198s-13 65 -98 65c-88 0 -100 -65 -100 -65zM359 131c-8 20 -13 42 -15 66l-130 -21l-4 -19c-10 -64 40 -67 81 -52z" />
    <glyph glyph-name="oslash" unicode="&#xf8;" horiz-adv-x="570" 
d="M72 -34l-35 37l60 60c-39 39 -61 93 -61 157c0 138 113 230 251 230c57 0 111 -17 154 -46l66 66l35 -34l-63 -64c37 -39 59 -91 59 -152c0 -141 -111 -229 -251 -229c-57 0 -108 15 -150 42zM287 104c80 0 102 59 102 114c0 17 -4 39 -9 55l-154 -153
c15 -10 34 -16 61 -16zM196 160l154 154c-15 11 -36 20 -63 20c-79 0 -102 -61 -102 -116c0 -20 4 -41 11 -58z" />
    <glyph glyph-name="ellipsis" unicode="&#x2026;" horiz-adv-x="834" 
d="M608 77c0 49 39 87 88 87c48 0 88 -38 88 -87c0 -48 -40 -87 -88 -87c-49 0 -88 39 -88 87zM330 77c0 49 39 87 88 87c48 0 88 -38 88 -87c0 -48 -40 -87 -88 -87c-49 0 -88 39 -88 87zM52 77c0 49 39 87 88 87c48 0 88 -38 88 -87c0 -48 -40 -87 -88 -87
c-49 0 -88 39 -88 87z" />
    <glyph glyph-name="uni00A0" unicode="&#xa0;" horiz-adv-x="248" 
 />
    <glyph glyph-name="Agrave" unicode="&#xc0;" horiz-adv-x="658" 
d="M139 929h128l118 -179h-112zM415 260l-86 233l-87 -233h173zM670 0h-162l-49 137h-259l-50 -137h-161l277 680h126z" />
    <glyph glyph-name="Atilde" unicode="&#xc3;" horiz-adv-x="658" 
d="M433 894h90c0 -85 -44 -144 -121 -144c-68 0 -85 55 -140 55c-32 0 -42 -33 -42 -48h-85c0 67 41 142 121 142c66 0 101 -50 136 -50c15 0 41 4 41 45zM415 260l-86 233l-87 -233h173zM670 0h-162l-49 137h-259l-50 -137h-161l277 680h126z" />
    <glyph glyph-name="Otilde" unicode="&#xd5;" horiz-adv-x="768" 
d="M489 894h90c0 -85 -44 -144 -121 -144c-68 0 -85 55 -140 55c-32 0 -42 -33 -42 -48h-85c0 67 41 142 121 142c66 0 101 -50 136 -50c15 0 41 4 41 45zM585 341c0 104 -96 200 -200 200s-200 -96 -200 -200s96 -201 200 -201s200 97 200 201zM736 340
c0 -188 -163 -350 -351 -350s-349 162 -349 350s161 350 349 350s351 -162 351 -350z" />
    <glyph glyph-name="OE" unicode="&#x152;" horiz-adv-x="903" 
d="M452 138v403h-45c-115 0 -194 -88 -194 -201s79 -202 194 -202h45zM845 136v-136h-248h-143h-56c-193 0 -338 148 -338 340s146 340 338 340h56h143h248v-135h-244v-136h235v-136h-235v-137h244z" />
    <glyph glyph-name="oe" unicode="&#x153;" horiz-adv-x="920" 
d="M860 103c-41 -77 -118 -114 -214 -114c-75 0 -139 22 -184 61c-45 -38 -108 -59 -175 -59c-141 0 -251 88 -251 229c0 138 113 230 251 230c115 0 176 -62 176 -62h1c46 40 109 62 182 62c135 0 244 -80 244 -221c0 -9 -1 -19 -1 -28h-348c0 -72 52 -104 105 -104
c41 0 84 18 107 54zM549 292h198s-13 65 -98 65c-88 0 -100 -65 -100 -65zM389 218c0 55 -24 116 -102 116c-79 0 -102 -61 -102 -116s20 -114 102 -114c80 0 102 59 102 114z" />
    <glyph glyph-name="endash" unicode="&#x2013;" horiz-adv-x="368" 
d="M368 220h-368v83h368v-83z" />
    <glyph glyph-name="emdash" unicode="&#x2014;" horiz-adv-x="667" 
d="M668 220h-669v83h669v-83z" />
    <glyph glyph-name="quotedblleft" unicode="&#x201c;" horiz-adv-x="577" 
d="M273 401l143 279h83l-78 -279h-148zM60 401l144 279h82l-78 -279h-148z" />
    <glyph glyph-name="quotedblright" unicode="&#x201d;" horiz-adv-x="542" 
d="M332 680l-144 -279h-82l78 279h148zM544 680l-144 -279h-82l78 279h148z" />
    <glyph glyph-name="quoteleft" unicode="&#x2018;" horiz-adv-x="349" 
d="M36 401l143 279h82l-77 -279h-148z" />
    <glyph glyph-name="quoteright" unicode="&#x2019;" horiz-adv-x="313" 
d="M305 680l-145 -279h-80l77 279h148z" />
    <glyph glyph-name="ydieresis" unicode="&#xff;" horiz-adv-x="490" 
d="M289.5 597c0 49 39 88 88 88c48 0 88 -39 88 -88c0 -48 -40 -87 -88 -87c-49 0 -88 39 -88 87zM27.5 597c0 49 39 88 88 88c48 0 88 -39 88 -88c0 -48 -40 -87 -88 -87c-49 0 -88 39 -88 87zM239 -250h-155l100 250h-26l-168 441h151l105 -315l105 315h152l-167 -441z
" />
    <glyph glyph-name="Ydieresis" unicode="&#x178;" horiz-adv-x="660" 
d="M373.5 837c0 49 39 88 88 88c48 0 88 -39 88 -88c0 -48 -40 -87 -88 -87c-49 0 -88 39 -88 87zM111.5 837c0 49 39 88 88 88c48 0 88 -39 88 -88c0 -48 -40 -87 -88 -87c-49 0 -88 39 -88 87zM255 0v324l-251 356h181l147 -227l146 227h179l-252 -356v-324h-150z" />
    <glyph glyph-name="fraction" unicode="&#x2044;" horiz-adv-x="448" 
d="M158 0h-138l272 680h138z" />
    <glyph glyph-name="uniFB01" unicode="&#xfb01;" horiz-adv-x="633" 
d="M409 592c0 49 39 88 88 88c48 0 88 -39 88 -88c0 -48 -40 -88 -88 -88c-49 0 -88 40 -88 88zM572 0h-151v441h151v-441zM236 690c79 0 110 -30 110 -30v-117s-18 30 -55 30c-29 0 -48 -17 -48 -60v-72h103v-117h-103v-324h-150v324h-63v117h63v91c0 109 46 158 143 158z
" />
    <glyph glyph-name="uniFB02" unicode="&#xfb02;" horiz-adv-x="642" 
d="M628 0c-15 -6 -38 -10 -66 -10c-97 0 -142 43 -142 152v538h150v-509c0 -47.0693 23 -64 58 -47v-124zM236 690c79 0 110 -30 110 -30v-117s-18 30 -55 30c-29 0 -48 -17 -48 -60v-72h103v-117h-103v-324h-150v324h-63v117h63v91c0 109 46 158 143 158z" />
    <glyph glyph-name="quotesinglbase" unicode="&#x201a;" horiz-adv-x="243" 
d="M212 136l-127 -281h-82l61 281h148z" />
    <glyph glyph-name="quotedblbase" unicode="&#x201e;" horiz-adv-x="506" 
d="M332 135l-144 -279h-82l78 279h148zM544 135l-144 -279h-82l78 279h148z" />
    <glyph glyph-name="Acircumflex" unicode="&#xc2;" horiz-adv-x="658" 
d="M388 959l128 -209h-112l-76 151l-74 -151h-112l127 209h119zM415 260l-86 233l-87 -233h173zM670 0h-162l-49 137h-259l-50 -137h-161l277 680h126z" />
    <glyph glyph-name="Ecircumflex" unicode="&#xca;" horiz-adv-x="503" 
d="M316 959l128 -209h-112l-76 151l-74 -151h-112l127 209h119zM454 136v-136h-394v680h394v-135h-244v-136h235v-136h-235v-137h244z" />
    <glyph glyph-name="Aacute" unicode="&#xc1;" horiz-adv-x="658" 
d="M519 929l-134 -179h-112l118 179h128zM415 260l-86 233l-87 -233h173zM670 0h-162l-49 137h-259l-50 -137h-161l277 680h126z" />
    <glyph glyph-name="Edieresis" unicode="&#xcb;" horiz-adv-x="503" 
d="M300 837c0 49 39 88 88 88c48 0 88 -39 88 -88c0 -48 -40 -87 -88 -87c-49 0 -88 39 -88 87zM38 837c0 49 39 88 88 88c48 0 88 -39 88 -88c0 -48 -40 -87 -88 -87c-49 0 -88 39 -88 87zM454 136v-136h-394v680h394v-135h-244v-136h235v-136h-235v-137h244z" />
    <glyph glyph-name="Egrave" unicode="&#xc8;" horiz-adv-x="503" 
d="M67 929h128l118 -179h-112zM454 136v-136h-394v680h394v-135h-244v-136h235v-136h-235v-137h244z" />
    <glyph glyph-name="Iacute" unicode="&#xcd;" horiz-adv-x="268" 
d="M325 929l-134 -179h-112l118 179h128zM210 0h-150v680h150v-680z" />
    <glyph glyph-name="Icircumflex" unicode="&#xce;" horiz-adv-x="268" 
d="M194 959l128 -209h-112l-76 151l-74 -151h-112l127 209h119zM210 0h-150v680h150v-680z" />
    <glyph glyph-name="Idieresis" unicode="&#xcf;" horiz-adv-x="268" 
d="M178 837c0 49 39 88 88 88c48 0 88 -39 88 -88c0 -48 -40 -87 -88 -87c-49 0 -88 39 -88 87zM-84 837c0 49 39 88 88 88c48 0 88 -39 88 -88c0 -48 -40 -87 -88 -87c-49 0 -88 39 -88 87zM210 0h-150v680h150v-680z" />
    <glyph glyph-name="Igrave" unicode="&#xcc;" horiz-adv-x="268" 
d="M-55 929h128l118 -179h-112zM210 0h-150v680h150v-680z" />
    <glyph glyph-name="Oacute" unicode="&#xd3;" horiz-adv-x="768" 
d="M575 929l-134 -179h-112l118 179h128zM585 341c0 104 -96 200 -200 200s-200 -96 -200 -200s96 -201 200 -201s200 97 200 201zM736 340c0 -188 -163 -350 -351 -350s-349 162 -349 350s161 350 349 350s351 -162 351 -350z" />
    <glyph glyph-name="Ocircumflex" unicode="&#xd4;" horiz-adv-x="768" 
d="M444 959l128 -209h-112l-76 151l-74 -151h-112l127 209h119zM585 341c0 104 -96 200 -200 200s-200 -96 -200 -200s96 -201 200 -201s200 97 200 201zM736 340c0 -188 -163 -350 -351 -350s-349 162 -349 350s161 350 349 350s351 -162 351 -350z" />
    <glyph glyph-name="Ograve" unicode="&#xd2;" horiz-adv-x="768" 
d="M195 929h128l118 -179h-112zM585 341c0 104 -96 200 -200 200s-200 -96 -200 -200s96 -201 200 -201s200 97 200 201zM736 340c0 -188 -163 -350 -351 -350s-349 162 -349 350s161 350 349 350s351 -162 351 -350z" />
    <glyph glyph-name="Uacute" unicode="&#xda;" horiz-adv-x="650" 
d="M516 929l-134 -179h-112l118 179h128zM457 680h150v-416c0 -182 -104 -274 -281 -274s-281 92 -281 274v416h151v-393c0 -95 28 -147 130 -147c103 0 131 52 131 147v393z" />
    <glyph glyph-name="Ucircumflex" unicode="&#xdb;" horiz-adv-x="650" 
d="M385 959l128 -209h-112l-76 151l-74 -151h-112l127 209h119zM457 680h150v-416c0 -182 -104 -274 -281 -274s-281 92 -281 274v416h151v-393c0 -95 28 -147 130 -147c103 0 131 52 131 147v393z" />
    <glyph glyph-name="Ugrave" unicode="&#xd9;" horiz-adv-x="650" 
d="M136 929h128l118 -179h-112zM457 680h150v-416c0 -182 -104 -274 -281 -274s-281 92 -281 274v416h151v-393c0 -95 28 -147 130 -147c103 0 131 52 131 147v393z" />
    <glyph glyph-name="dotlessi" unicode="&#x131;" horiz-adv-x="278" 
d="M215 0h-151v441h151v-441z" />
    <glyph glyph-name="circumflex" unicode="&#x2c6;" horiz-adv-x="327" 
d="M224 959l128 -209h-112l-76 151l-74 -151h-112l127 209h119z" />
    <glyph glyph-name="tilde" unicode="&#x2dc;" horiz-adv-x="389" 
d="M298 761h90c0 -85 -44 -144 -121 -144c-68 0 -85 55 -140 55c-32 0 -42 -33 -42 -48h-85c0 67 41 142 121 142c66 0 101 -50 136 -50c15 0 41 4 41 45z" />
    <glyph glyph-name="ring" unicode="&#x2da;" horiz-adv-x="438" 
d="M220 526.404c38.71 0 49.8643 28.2119 49.8643 55.1113c0 26.9004 -12.4668 55.1123 -49.8643 55.1123s-49.207 -28.2119 -49.207 -55.1123c0 -26.8994 10.4971 -55.1113 49.207 -55.1113zM220 693.053c66.2666 0 120.723 -43.959 120.723 -110.882
c0 -68.2324 -53.1445 -110.224 -120.723 -110.224s-120.723 41.9912 -120.723 110.224c0 66.9229 54.4561 110.882 120.723 110.882z" />
    <glyph glyph-name="cedilla" unicode="&#xb8;" horiz-adv-x="536" 
d="M252 10h63l-42 -93c8 1 13 3 20 3s13 -2 18 -3c32 -8 49 -38 49 -74c0 -13 -3 -29 -8 -42c-18 -43 -63 -60 -112 -60c-30 0 -62 6 -89 17l-8 3l27 55l7 -1c13 -4 27 -9 40 -11c7 -1 15 -1 20 -1c38 0 55 21 55 38c0 12 -9 22 -26 25c-4 1 -9 1 -13 1c-17 0 -38 -4 -54 -6
l-14 -2z" />
    <glyph glyph-name="caron" unicode="&#x2c7;" horiz-adv-x="1038" 
 />
    <glyph glyph-name="Eth" unicode="&#xd0;" horiz-adv-x="632" 
d="M60 680h202c192 0 338 -148 338 -340s-145 -340 -338 -340h-202v293h-60v83h60v304zM208 138h45c115 0 194 89 194 202s-79 201 -194 201h-45v-165h162v-83h-162v-155z" />
    <glyph glyph-name="multiply" unicode="&#xd7;" horiz-adv-x="438" 
d="M162 261l-116 116l58 59l116 -116l116 116l59 -59l-117 -116l117 -116l-59 -58l-116 116l-116 -116l-58 58z" />
    <glyph glyph-name="Yacute" unicode="&#xdd;" horiz-adv-x="660" 
d="M520.5 929l-134 -179h-112l118 179h128zM255 0v324l-251 356h181l147 -227l146 227h179l-252 -356v-324h-150z" />
    <glyph glyph-name="Thorn" unicode="&#xde;" horiz-adv-x="535" 
d="M210 610h105c110 0 208 -89 208 -218c0 -138 -98 -219 -208 -219h-105v-173h-150v750h150v-140zM210 492v-201h80c45 0 90 37 90 101c0 62 -45 100 -90 100h-80z" />
    <glyph glyph-name="eth" unicode="&#xf0;" horiz-adv-x="613" 
d="M404 220c0 58 -44 110 -104 110s-104 -52 -104 -110s44 -110 104 -110s104 52 104 110zM404 524h-159v83h159v73h151v-73h60v-83h-60v-524h-151v53c-30 -45 -95 -63 -150 -63c-124 0 -218 108 -218 230s94 231 218 231c55 0 111 -16 150 -64v137z" />
    <glyph glyph-name="yacute" unicode="&#xfd;" horiz-adv-x="490" 
d="M436.5 689l-134 -179h-112l118 179h128zM239 -250h-155l100 250h-26l-168 441h151l105 -315l105 315h152l-167 -441z" />
    <glyph glyph-name="thorn" unicode="&#xfe;" horiz-adv-x="613" 
d="M210 220c0 -58 45 -110 105 -110s105 52 105 110s-45 110 -105 110s-105 -52 -105 -110zM210 -250h-150v930h150v-293c39 48 94 64 151 64c124 0 219 -109 219 -231s-95 -230 -219 -230c-57 0 -121 18 -151 63v-303z" />
    <glyph glyph-name="minus" unicode="&#x2212;" horiz-adv-x="338" 
d="M324 220h-309v83h309v-83z" />
    <glyph glyph-name="apple" unicode="&#xf8ff;" horiz-adv-x="904" 
d="M274 509v-262c0 -10 -9 -17 -19 -17c-9 0 -16 7 -16 17v262c0 10 7 18 16 18c10 0 19 -8 19 -18zM404 378c0 -10 -7 -17 -17 -17h-65c-10 0 -18 7 -18 17s8 18 18 18h65c10 0 17 -8 17 -18zM470 509v-262c0 -10 -7 -17 -17 -17s-17 7 -17 17v262c0 10 7 18 17 18
s17 -8 17 -18zM662 236c-7 -7 -19 -7 -24 0l-133 129c-5 7 -5 20 0 25l133 131c4 4 8 5 13 5h2c4 -1 5 -2 6 -2s1 -1 3 -3c7 -5 7 -17 0 -24l-119 -119l119 -119c7 -7 7 -18 0 -23zM796 378c0 190 -153 343 -343 343s-343 -153 -343 -343s153 -342 343 -342s343 152 343 342
zM832 378c0 -209 -170 -378 -379 -378s-377 169 -377 378s168 377 377 377s379 -168 379 -377z" />
    </font>
</defs>
</svg>
