<svg id="white" xmlns="http://www.w3.org/2000/svg" viewBox="0 0 589.58 290.9"><defs><style>.cls-1{fill:#fff;}.cls-2,.cls-3{fill:#d43227;}.cls-2{stroke:#010101;stroke-miterlimit:10;}</style></defs><title>hackathon_Playeras</title><path class="cls-1" d="M2007.57,346.16V470.57H1978.3V420.62h-41.16v49.95h-27.44V346.16h27.44v49.58h41.16V346.16h29.27Z" transform="translate(-1897.51 -344.33)"/><path class="cls-1" d="M2110.94,470.57l-9-25.06h-47.39l-9.15,25.06H2016l50.68-124.41h23.05l50.86,124.41h-29.64Zm-32.75-90.2L2062.27,423h31.65Z" transform="translate(-1897.51 -344.33)"/><path class="cls-1" d="M2201,472.4A64,64,0,1,1,2256.2,376c-0.18-.18-25.25,11.53-25.43,11.34-5.49-10.61-17.75-17.38-29.82-17.38-20.13,0-36.23,17.38-36.23,38.42s16.1,38.42,36.23,38.42c12.44,0,24.88-7.5,30.19-18.11,0-.18,25.25,12.07,25.25,11.89A64,64,0,0,1,2201,472.4Z" transform="translate(-1897.51 -344.33)"/><path class="cls-1" d="M2297.73,470.57h-27.44V346.16h27.44v53.79l39.15-53.79H2372l-47.75,62.2,49.76,62.2h-37.14l-39.15-54v54Z" transform="translate(-1897.51 -344.33)"/><path class="cls-1" d="M1992.46,635.23l-9-25.06h-47.38L1927,635.23h-29.46l50.68-124.41h23.05l50.86,124.41h-29.64ZM1959.71,545l-15.92,42.63h31.65Z" transform="translate(-1897.51 -344.33)"/><path class="cls-1" d="M2066.93,635.23h-27.44V535.52h-35.68v-24.7h98.61v24.7h-35.49v99.71Z" transform="translate(-1897.51 -344.33)"/><path class="cls-1" d="M2211.64,510.82V635.23h-29.27V585.28h-41.16v49.95h-27.44V510.82h27.44V560.4h41.16V510.82h29.27Z" transform="translate(-1897.51 -344.33)"/><path class="cls-1" d="M2459.15,635.23l-54.89-79.58v79.58h-27.44V510.82h27.44l54.89,79.59V510.82h27.44V635.23h-27.44Z" transform="translate(-1897.51 -344.33)"/><path class="cls-1" d="M2377.32,420.61V395.74h109.77v24.87H2377.32Z" transform="translate(-1897.51 -344.33)"/><path class="cls-2" d="M2239.34,508.34" transform="translate(-1897.51 -344.33)"/><rect class="cls-3" x="335.37" y="208.09" width="25.14" height="40.18"/><rect class="cls-3" x="436.1" y="208.09" width="24.86" height="40.18"/><path class="cls-3" d="M2232.88,518.55v28.28H2258v-5.72a5,5,0,0,1,5-5h65.47a5.08,5.08,0,0,1,5.08,5.08v5.69h24.86v-28a8,8,0,0,0-7.95-8l-109.9,0A7.73,7.73,0,0,0,2232.88,518.55Z" transform="translate(-1897.51 -344.33)"/><path class="cls-3" d="M2232.88,627.49V599.22H2258v5.72a5,5,0,0,0,5,5h65.47a5.08,5.08,0,0,0,5.08-5.08v-5.69h24.86v28a8,8,0,0,1-7.95,8l-109.9,0A7.73,7.73,0,0,1,2232.88,627.49Z" transform="translate(-1897.51 -344.33)"/></svg>