<svg id="Layer_1" data-name="Layer 1" xmlns="http://www.w3.org/2000/svg" viewBox="0 0 1151.44 1152.23"><defs><style>.cls-1,.cls-2{fill:none;stroke-miterlimit:10;stroke-width:8px;}.cls-1{stroke:#d43227;}.cls-2{stroke:#57a0d7;}</style></defs><title>hackathon_2colors</title><rect class="cls-1" x="4" y="364.2" width="217.66" height="347.89"/><rect class="cls-1" x="876.19" y="364.2" width="215.24" height="347.89"/><path class="cls-1" d="M5671.33,2483.33v244.84H5889v-49.51a43.68,43.68,0,0,1,43.68-43.68h566.9a44,44,0,0,1,44,44v49.24h215.24V2485.47a68.84,68.84,0,0,0-68.82-68.84l-951.63-.26A67,67,0,0,0,5671.33,2483.33Z" transform="translate(-5667.33 -2412.36)"/><path class="cls-1" d="M5671.33,3426.63V3181.79H5889v49.51a43.68,43.68,0,0,0,43.68,43.68h566.9a44,44,0,0,0,44-44v-49.24h215.24V3424.5a68.84,68.84,0,0,1-68.82,68.84l-951.63.26A67,67,0,0,1,5671.33,3426.63Z" transform="translate(-5667.33 -2412.36)"/><rect class="cls-2" x="60" y="431.2" width="217.66" height="347.89"/><rect class="cls-2" x="932.19" y="431.2" width="215.24" height="347.89"/><path class="cls-2" d="M5727.33,2550.33v244.84H5945v-49.51a43.68,43.68,0,0,1,43.68-43.68h566.9a44,44,0,0,1,44,44v49.24h215.24V2552.47a68.84,68.84,0,0,0-68.82-68.84l-951.63-.26A67,67,0,0,0,5727.33,2550.33Z" transform="translate(-5667.33 -2412.36)"/><path class="cls-2" d="M5727.33,3493.63V3248.79H5945v49.51a43.68,43.68,0,0,0,43.68,43.68h566.9a44,44,0,0,0,44-44v-49.24h215.24V3491.5a68.84,68.84,0,0,1-68.82,68.84l-951.63.26A67,67,0,0,1,5727.33,3493.63Z" transform="translate(-5667.33 -2412.36)"/></svg>